<?xml version="1.0" encoding="utf-8"?>
<svg version="1.1" xmlns:xlink="http://www.w3.org/1999/xlink" width="18px" height="14px" xmlns="http://www.w3.org/2000/svg">
  <g transform="matrix(1 0 0 1 -596 -263 )">
    <path d="M 15.4126394052045 7.99844115354638  C 15.4200743494424 8.01299038711354  15.4237918215613 8.03481423746428  15.4237918215613 8.0639127045986  L 15.4237918215613 13.3016367887763  C 15.4237918215613 13.4907768251494  15.3531598513011 13.6544557027799  15.2118959107807 13.792673421668  C 15.0706319702602 13.930891140556  14.9033457249071 14  14.7100371747212 14  L 10.4275092936803 14  L 10.4275092936803 9.80982073265783  L 7.5724907063197 9.80982073265783  L 7.5724907063197 14  L 3.28996282527881 14  C 3.09665427509294 14  2.92936802973978 13.930891140556  2.78810408921933 13.792673421668  C 2.64684014869889 13.6544557027799  2.57620817843866 13.4907768251494  2.57620817843866 13.3016367887763  L 2.57620817843866 8.0639127045986  C 2.57620817843866 8.05663808781502  2.57806691449814 8.04572616263965  2.5817843866171 8.03117692907249  C 2.58550185873606 8.01662769550533  2.58736059479554 8.00571577032996  2.58736059479554 7.99844115354638  L 9 2.82618862042089  L 15.4126394052045 7.99844115354638  Z M 17.9888475836431 7.05455962587685  C 17.996282527881 7.15276695245518  17.9702602230483 7.23824369966225  17.910780669145 7.31098986749805  L 17.2193308550186 8.11847233047545  C 17.1598513011152 8.18394388152767  17.0817843866171 8.22395427383736  16.9851301115242 8.23850350740452  L 16.9516728624535 8.23850350740452  C 16.8550185873606 8.23850350740452  16.7769516728625 8.21304234866199  16.7174721189591 8.16212003117693  L 9 1.86593920498831  L 1.28252788104089 8.16212003117693  C 1.19330855018587 8.22031696544557  1.10408921933086 8.2457781241881  1.01486988847584 8.23850350740452  C 0.9182156133829 8.22395427383736  0.840148698884759 8.18394388152767  0.780669144981413 8.11847233047545  L 0.0892193308550186 7.31098986749805  C 0.0297397769516729 7.23824369966225  0.00371747211895913 7.15276695245518  0.0111524163568773 7.05455962587685  C 0.0185873605947956 6.95635229929852  0.0594795539033458 6.87815016887503  0.133828996282528 6.81995323460639  L 8.15241635687732 0.283710054559626  C 8.39033457249071 0.0945700181865405  8.6728624535316 0  9 0  C 9.3271375464684 0  9.6096654275093 0.0945700181865405  9.84758364312268 0.283710054559626  L 12.5687732342007 2.50974279033515  L 12.5687732342007 0.381917381137957  C 12.5687732342007 0.280072746167834  12.6022304832714 0.196414653156664  12.6691449814126 0.130943102104443  C 12.7360594795539 0.0654715510522217  12.82156133829 0.0327357755261108  12.9256505576208 0.0327357755261108  L 15.0669144981413 0.0327357755261108  C 15.1710037174721 0.0327357755261108  15.2565055762082 0.0654715510522217  15.3234200743494 0.130943102104443  C 15.3903345724907 0.196414653156664  15.4237918215613 0.280072746167834  15.4237918215613 0.381917381137957  L 15.4237918215613 4.83398285268901  L 17.8661710037175 6.81995323460639  C 17.9405204460967 6.87815016887503  17.9814126394052 6.95635229929852  17.9888475836431 7.05455962587685  Z " fill-rule="nonzero" fill="#ffffff" stroke="none" transform="matrix(1 0 0 1 596 263 )" />
  </g>
</svg>