<?xml version="1.0" encoding="utf-8"?>
<svg version="1.1" xmlns:xlink="http://www.w3.org/1999/xlink" width="22px" height="15px" xmlns="http://www.w3.org/2000/svg">
  <g transform="matrix(1 0 0 1 -594 -1380 )">
    <path d="M 11 8.18181818181836  L 11 4.09090909090898  L 6.875 4.09090909090898  L 6.875 8.18181818181836  L 11 8.18181818181836  Z M 5.5 10.909090909091  L 12.375 10.909090909091  L 12.375 12.2727272727273  L 5.5 12.2727272727273  L 5.5 10.909090909091  Z M 5.5 2.72727272727265  L 12.375 2.72727272727265  L 12.375 9.54545454545469  L 5.5 9.54545454545469  L 5.5 2.72727272727265  Z M 13.75 10.909090909091  L 19.25 10.909090909091  L 19.25 12.2727272727273  L 13.75 12.2727272727273  L 13.75 10.909090909091  Z M 13.75 8.18181818181836  L 19.25 8.18181818181836  L 19.25 9.54545454545469  L 13.75 9.54545454545469  L 13.75 8.18181818181836  Z M 13.75 5.45454545454531  L 19.25 5.45454545454531  L 19.25 6.81818181818164  L 13.75 6.81818181818164  L 13.75 5.45454545454531  Z M 13.75 2.72727272727265  L 19.25 2.72727272727265  L 19.25 4.09090909090898  L 13.75 4.09090909090898  L 13.75 2.72727272727265  Z M 2.5458984375 13.4339488636363  C 2.68196614583332 13.2990056818182  2.75 13.1392045454546  3 12.9545454545453  L 3 2.72727272727265  L 1.375 2.72727272727265  L 1.375 12.9545454545453  C 1.375 13.1392045454546  1.44303385416668 13.2990056818182  1.5791015625 13.4339488636363  C 1.71516927083332 13.5688920454544  1.87630208333332 13.6363636363637  2.0625 13.6363636363637  C 2.24869791666668 13.6363636363637  2.40983072916668 13.5688920454544  2.5458984375 13.4339488636363  Z M 20.4208984375 13.4339488636363  C 20.5569661458333 13.2990056818182  20.625 13.1392045454546  20.625 12.9545454545453  L 20.625 1.36363636363633  L 4.125 1.36363636363633  L 4.125 12.9545454545453  C 4.125 13.1889204545453  4.08561197916668 13.4161931818182  4.0068359375 13.6363636363637  L 19.9375 13.6363636363637  C 20.1236979166667 13.6363636363637  20.2848307291667 13.5688920454544  20.4208984375 13.4339488636363  Z M 2.75 0  L 22 0  L 22 12.9545454545453  C 22 13.5227272727272  21.7994791666667 14.0056818181818  21.3984375 14.403409090909  C 20.9973958333333 14.8011363636362  20.5104166666667 15  19.9375 15  L 2.0625 15  C 1.48958333333332 15  1.00260416666668 14.8011363636362  0.6015625 14.403409090909  C 0.200520833333317 14.0056818181818  0 13.5227272727272  0 12.9545454545453  L 0 1.36363636363633  L 2.75 1.36363636363633  L 2.75 0  Z " fill-rule="nonzero" fill="#d7d7d7" stroke="none" transform="matrix(1 0 0 1 594 1380 )" />
  </g>
</svg>