<?xml version="1.0" encoding="utf-8"?>
<svg version="1.1" xmlns:xlink="http://www.w3.org/1999/xlink" width="16px" height="16px" xmlns="http://www.w3.org/2000/svg">
  <g transform="matrix(1 0 0 1 -115 -450 )">
    <path d="M 9.23958333333336 4.09375  C 9.30208333333336 4.15625  9.33333333333336 4.23611111111152  9.33333333333336 4.33333333333374  L 9.33333333333336 9  C 9.33333333333336 9.09722222222182  9.30208333333336 9.17708333333374  9.23958333333336 9.23958333333374  C 9.17708333333336 9.30208333333374  9.09722222222225 9.33333333333374  9 9.33333333333374  L 5.66666666666664 9.33333333333374  C 5.56944444444447 9.33333333333374  5.48958333333336 9.30208333333374  5.42708333333336 9.23958333333374  C 5.36458333333336 9.17708333333374  5.33333333333336 9.09722222222182  5.33333333333336 9  L 5.33333333333336 8.33333333333374  C 5.33333333333336 8.23611111111152  5.36458333333336 8.15625  5.42708333333336 8.09375  C 5.48958333333336 8.03125  5.56944444444447 8  5.66666666666664 8  L 8 8  L 8 4.33333333333374  C 8 4.23611111111152  8.03125 4.15625  8.09375 4.09375  C 8.15625 4.03125  8.23611111111114 4  8.33333333333336 4  L 9 4  C 9.09722222222225 4  9.17708333333336 4.03125  9.23958333333336 4.09375  Z M 12.90625 10.84375  C 13.4131944444445 9.97569444444444  13.6666666666666 9.02777777777818  13.6666666666666 8  C 13.6666666666666 6.97222222222182  13.4131944444445 6.02430555555556  12.90625 5.15625  C 12.3993055555555 4.28819444444444  11.7118055555555 3.60069444444444  10.84375 3.09375  C 9.97569444444447 2.58680555555556  9.02777777777775 2.33333333333374  8 2.33333333333374  C 6.97222222222222 2.33333333333374  6.02430555555553 2.58680555555556  5.15625 3.09375  C 4.28819444444447 3.60069444444444  3.60069444444447 4.28819444444444  3.09375 5.15625  C 2.58680555555553 6.02430555555556  2.33333333333336 6.97222222222182  2.33333333333336 8  C 2.33333333333336 9.02777777777818  2.58680555555553 9.97569444444444  3.09375 10.84375  C 3.60069444444447 11.7118055555556  4.28819444444447 12.3993055555556  5.15625 12.90625  C 6.02430555555553 13.4131944444444  6.97222222222222 13.6666666666663  8 13.6666666666663  C 9.02777777777775 13.6666666666663  9.97569444444447 13.4131944444444  10.84375 12.90625  C 11.7118055555555 12.3993055555556  12.3993055555555 11.7118055555556  12.90625 10.84375  Z M 14.9270833333334 3.984375  C 15.6423611111111 5.21006944444444  16 6.54861111111152  16 8  C 16 9.45138888888848  15.6423611111111 10.7899305555556  14.9270833333334 12.015625  C 14.2118055555555 13.2413194444444  13.2413194444445 14.2118055555556  12.015625 14.9270833333337  C 10.7899305555555 15.6423611111115  9.45138888888886 16  8 16  C 6.54861111111114 16  5.21006944444447 15.6423611111115  3.984375 14.9270833333337  C 2.75868055555553 14.2118055555556  1.78819444444447 13.2413194444444  1.07291666666664 12.015625  C 0.357638888888864 10.7899305555556  0 9.45138888888848  0 8  C 0 6.54861111111152  0.357638888888864 5.21006944444444  1.07291666666664 3.984375  C 1.78819444444447 2.75868055555556  2.75868055555553 1.78819444444444  3.984375 1.07291666666626  C 5.21006944444447 0.357638888888485  6.54861111111114 0  8 0  C 9.45138888888886 0  10.7899305555555 0.357638888888485  12.015625 1.07291666666626  C 13.2413194444445 1.78819444444444  14.2118055555555 2.75868055555556  14.9270833333334 3.984375  Z " fill-rule="nonzero" fill="#d7d7d7" stroke="none" transform="matrix(1 0 0 1 115 450 )" />
  </g>
</svg>