<?xml version="1.0" encoding="utf-8"?>
<svg version="1.1" xmlns:xlink="http://www.w3.org/1999/xlink" width="50px" height="43px" xmlns="http://www.w3.org/2000/svg">
  <g transform="matrix(1 0 0 1 -765 -1430 )">
    <path d="M 6.61272321428571 35.3014322916667  C 6.96614583333333 34.9468315972222  7.14285714285714 34.5269097222222  7.14285714285714 34.0416666666667  C 7.14285714285714 33.5564236111111  6.96614583333333 33.1365017361111  6.61272321428571 32.7819010416667  C 6.2593005952381 32.4273003472222  5.84077380952381 32.25  5.35714285714286 32.25  C 4.87351190476191 32.25  4.45498511904762 32.4273003472222  4.1015625 32.7819010416667  C 3.74813988095238 33.1365017361111  3.57142857142857 33.5564236111111  3.57142857142857 34.0416666666667  C 3.57142857142857 34.5269097222222  3.74813988095238 34.9468315972222  4.1015625 35.3014322916667  C 4.45498511904762 35.6560329861111  4.87351190476191 35.8333333333333  5.35714285714286 35.8333333333333  C 5.84077380952381 35.8333333333333  6.2593005952381 35.6560329861111  6.61272321428571 35.3014322916667  Z M 45.3683035714286 20.4361979166667  C 46.0751488095238 19.7269965277778  46.4285714285714 18.8871527777778  46.4285714285714 17.9166666666667  C 46.4285714285714 16.96484375  46.0658482142857 16.1296657986111  45.3404017857143 15.4111328125  C 44.6149553571429 14.6925998263889  43.7872023809524 14.3333333333333  42.8571428571429 15  L 26.7857142857143 15  C 26.7857142857143 13.9600694444444  26.9252232142857 13.5074869791667  27.2042410714286 12.9755859375  C 27.4832589285714 12.4436848958333  27.7901785714286 11.9304470486111  28.125 11.4358723958333  C 28.4598214285714 10.9412977430556  28.7667410714286 10.3067491319444  29.0457589285714 9.5322265625  C 29.3247767857143 8.75770399305556  29.4642857142857 7.96918402777778  29.4642857142857 7.16666666666667  C 29.4642857142857 5.91623263888888  29.0504092261905 5.00640190972222  28.22265625 4.43717447916667  C 27.3949032738095 3.86794704861111  26.3206845238095 3.58333333333333  25 3.58333333333333  C 24.5535714285714 3.58333333333333  23.7165178571429 4.88042534722222  22.4888392857143 7.474609375  C 22.0424107142857 8.29578993055556  21.6982886904762 8.90234375  21.4564732142857 9.29427083333334  C 20.7124255952381 10.4887152777778  19.6707589285714 11.841796875  18.3314732142857 13.353515625  C 17.0107886904762 14.865234375  16.0714285714286 15.8543836805556  15.5133928571429 16.3209635416667  C 14.2299107142857 17.384765625  12.9278273809524 17.9166666666667  11.6071428571429 17.9166666666667  L 11 17.9166666666667  L 11 35.8333333333333  L 11.6071428571429 35.8333333333333  C 12.9464285714286 35.8333333333333  14.4996279761905 36.1319444444444  16.2667410714286 36.7291666666667  C 18.0338541666667 37.3263888888889  19.8335193452381 37.9236111111111  21.6657366071429 38.5208333333333  C 23.4979538690476 39.1180555555556  25.1674107142857 39.4166666666667  26.6741071428571 39.4166666666667  C 30.1897321428571 39.4166666666667  31.9475446428571 37.8582899305556  31.9475446428571 34.7415364583333  C 31.9475446428571 34.2562934027778  31.9010416666667 33.7337239583333  31.8080357142857 33.173828125  C 32.3660714285714 32.8752170138889  32.807849702381 32.3853081597222  33.1333705357143 31.7041015625  C 33.4588913690476 31.0228949652778  33.6216517857143 30.3370225694444  33.6216517857143 29.646484375  C 33.6216517857143 28.9559461805556  33.4542410714286 28.3120659722222  33.1194196428571 27.71484375  C 34.1052827380952 26.7816840277778  34.5982142857143 25.6712239583333  34.5982142857143 24.3834635416667  C 34.5982142857143 23.9168836805556  34.5052083333333 23.3989800347222  34.3191964285714 22.8297526041667  C 34.1331845238095 22.2605251736111  33.9006696428571 21.8172743055556  33.6216517857143 21.5  L 42.8571428571429 21.5  C 43.8244047619048 21.5  44.6614583333333 21.1453993055556  45.3683035714286 20.4361979166667  Z M 47.8794642857143 12.8776041666667  C 49.2931547619048 14.2960069444444  50 15.9663628472222  50 17.888671875  C 50 19.8483072916667  49.2978050595238 21.5373263888889  47.8934151785714 22.9557291666667  C 46.4890252976191 24.3741319444444  44.8102678571429 25.0833333333333  42.8571428571429 25.0833333333333  L 38.1417410714286 25.0833333333333  C 38.0673363095238 26.2404513888889  37.7232142857143 27.3509114583333  37.109375 28.4147135416667  C 37.1651785714286 28.806640625  37.1930803571429 29.2078993055556  37.1930803571429 29.6184895833333  C 37.1930803571429 31.5034722222222  36.6350446428571 33.1644965277778  35.5189732142857 34.6015625  C 35.5375744047619 37.1957465277778  34.7470238095238 39.2440321180556  33.1473214285714 40.7464192708333  C 31.5476190476191 42.2488064236111  29.4363839285714 43  26.8136160714286 43  C 24.3396577380952 43  21.3448660714286 42.3561197916667  17.8292410714286 41.068359375  C 14.7786458333333 39.9672309027778  12.7046130952381 39.4166666666667  11.6071428571429 39.4166666666667  L 3.57142857142857 39.4166666666667  C 2.58556547619048 39.4166666666667  1.74386160714286 39.0667317708333  1.04631696428571 38.3668619791667  C 0.348772321428571 37.6669921875  0 36.8224826388889  0 35.8333333333333  L 0 17.9166666666667  C 0 16.9275173611111  0.348772321428571 16.0830078125  1.04631696428571 15.3831380208333  C 1.74386160714286 14.6832682291667  2.58556547619048 14.3333333333333  3.57142857142857 14.3333333333333  L 11.6071428571429 14.3333333333333  C 11.7931547619048 14.3333333333333  11.9931175595238 14.2913411458333  12.20703125 14.2073567708333  C 12.4209449404762 14.1233723958333  12.6395089285714 13.9927300347222  12.8627232142857 13.8154296875  C 13.0859375 13.6381293402778  13.2952008928571 13.4701605902778  13.4905133928571 13.3115234375  C 13.6858258928571 13.1528862847222  13.9090401785714 12.9429253472222  14.16015625 12.681640625  C 14.4112723214286 12.4203559027778  14.6019345238095 12.2197265625  14.7321428571429 12.0797526041667  C 14.8623511904762 11.9397786458333  15.0390625 11.7391493055556  15.2622767857143 11.4778645833333  C 15.4854910714286 11.2165798611111  15.6156994047619 11.0579427083333  15.6529017857143 11.001953125  C 16.8619791666667 9.62087673611111  17.7920386904762 8.41710069444444  18.4430803571429 7.390625  C 18.6848958333333 6.99869791666667  18.9918154761905 6.42013888888888  19.3638392857143 5.65494791666667  C 19.7358630952381 4.88975694444444  20.0799851190476 4.21788194444444  20.3962053571429 3.63932291666667  C 20.7124255952381 3.06076388888889  21.089099702381 2.47287326388889  21.5262276785714 1.87565104166667  C 21.9633556547619 1.27842881944444  22.4748883928571 0.81651475694444  23.0608258928571 0.489908854166665  C 23.6467633928571 0.163302951388885  24.2931547619048 0  25 0  C 27.3251488095238 0  29.2457217261905 0.625217013888885  30.76171875 1.87565104166667  C 32.2777157738095 3.12608506944444  33.0357142857143 4.88975694444444  33.0357142857143 7.16666666666667  C 33.0357142857143 8.43576388888889  32.8311011904762 9.63020833333334  32.421875 11  L 42.8571428571429 11  C 44.7916666666667 10.75  46.4657738095238 11.4592013888889  47.8794642857143 12.8776041666667  Z " fill-rule="nonzero" fill="#ffffff" stroke="none" transform="matrix(1 0 0 1 765 1430 )" />
  </g>
</svg>