<?xml version="1.0" encoding="utf-8"?>
<svg version="1.1" xmlns:xlink="http://www.w3.org/1999/xlink" width="31px" height="26px" xmlns="http://www.w3.org/2000/svg">
  <g transform="matrix(1 0 0 1 -125 -594 )">
    <path d="M 4.09988839285714 21.3450520833333  C 4.31901041666667 21.1306423611111  4.42857142857143 20.8767361111111  4.42857142857143 20.5833333333333  C 4.42857142857143 20.2899305555556  4.31901041666667 20.0360243055556  4.09988839285714 19.8216145833333  C 3.88076636904762 19.6072048611111  3.62127976190476 19.5  3.32142857142857 19.5  C 3.02157738095238 19.5  2.76209077380952 19.6072048611111  2.54296875 19.8216145833333  C 2.32384672619048 20.0360243055556  2.21428571428571 20.2899305555556  2.21428571428571 20.5833333333333  C 2.21428571428571 20.8767361111111  2.32384672619048 21.1306423611111  2.54296875 21.3450520833333  C 2.76209077380952 21.5594618055556  3.02157738095238 21.6666666666667  3.32142857142857 21.6666666666667  C 3.62127976190476 21.6666666666667  3.88076636904762 21.5594618055556  4.09988839285714 21.3450520833333  Z M 28.1283482142857 12.3567708333333  C 28.5665922619048 11.9279513888889  28.7857142857143 11.4201388888889  28.7857142857143 10.8333333333333  C 28.7857142857143 10.2578125  28.5608258928571 9.75282118055555  28.1110491071429 9.318359375  C 27.6612723214286 8.88389756944444  27.1480654761905 8.66666666666667  26.5714285714286 8.66666666666667  L 16.6071428571429 8.66666666666667  C 16.6071428571429 8.44097222222222  16.6936383928571 8.16731770833333  16.8666294642857 7.845703125  C 17.0396205357143 7.52408854166667  17.2299107142857 7.21375868055555  17.4375 6.91471354166667  C 17.6450892857143 6.61566840277778  17.8353794642857 6.23198784722222  18.0083705357143 5.763671875  C 18.1813616071429 5.29535590277778  18.2678571428571 4.81857638888889  18.2678571428571 4.33333333333333  C 18.2678571428571 3.57725694444444  18.0112537202381 3.02712673611111  17.498046875 2.68294270833333  C 16.9848400297619 2.33875868055555  16.3188244047619 2.16666666666667  15.5 2.16666666666667  C 15.2232142857143 2.16666666666667  14.7042410714286 2.95095486111111  13.9430803571429 4.51953125  C 13.6662946428571 5.01605902777778  13.4529389880952 5.3828125  13.3030133928571 5.61979166666667  C 12.8417038690476 6.34201388888889  12.1958705357143 7.16015625  11.3655133928571 8.07421875  C 10.5466889880952 8.98828125  9.96428571428572 9.58637152777778  9.61830357142857 9.86848958333333  C 8.82254464285714 10.51171875  8.01525297619048 10.8333333333333  7.19642857142857 10.8333333333333  L 7 10.8333333333333  L 7 21.6666666666667  L 7.19642857142857 21.6666666666667  C 8.02678571428572 21.6666666666667  8.9897693452381 21.8472222222222  10.0853794642857 22.2083333333333  C 11.1809895833333 22.5694444444444  12.2967819940476 22.9305555555556  13.4327566964286 23.2916666666667  C 14.5687313988095 23.6527777777778  15.6037946428571 23.8333333333333  16.5379464285714 23.8333333333333  C 18.7176339285714 23.8333333333333  19.8074776785714 22.8910590277778  19.8074776785714 21.0065104166667  C 19.8074776785714 20.7131076388889  19.7786458333333 20.3971354166667  19.7209821428571 20.05859375  C 20.0669642857143 19.8780381944444  20.3408668154762 19.5818142361111  20.5426897321429 19.169921875  C 20.7445126488095 18.7580295138889  20.8454241071429 18.3433159722222  20.8454241071429 17.92578125  C 20.8454241071429 17.5082465277778  20.7416294642857 17.1189236111111  20.5340401785714 16.7578125  C 21.1452752976191 16.1935763888889  21.4508928571429 15.5221354166667  21.4508928571429 14.7434895833333  C 21.4508928571429 14.4613715277778  21.3932291666667 14.1482204861111  21.2779017857143 13.8040364583333  C 21.1625744047619 13.4598524305556  21.0184151785714 13.1918402777778  20.8454241071429 13  L 26.5714285714286 13  C 27.171130952381 13  27.6901041666667 12.7855902777778  28.1283482142857 12.3567708333333  Z M 29.6852678571429 7.78645833333333  C 30.561755952381 8.64409722222222  31 9.65407986111111  31 10.81640625  C 31 12.0013020833333  30.5646391369048 13.0225694444444  29.6939174107143 13.8802083333333  C 28.8231956845238 14.7378472222222  27.7823660714286 15.1666666666667  26.5714285714286 15.1666666666667  L 23.6478794642857 15.1666666666667  C 23.6017485119048 15.8663194444444  23.3883928571429 16.5377604166667  23.0078125 17.1809895833333  C 23.0424107142857 17.41796875  23.0597098214286 17.6605902777778  23.0597098214286 17.9088541666667  C 23.0597098214286 19.0486111111111  22.7137276785714 20.0529513888889  22.0217633928571 20.921875  C 22.0332961309524 22.4904513888889  21.5431547619048 23.7289496527778  20.5513392857143 24.6373697916667  C 19.5595238095238 25.5457899305556  18.2505580357143 26  16.6244419642857 26  C 15.090587797619 26  13.2338169642857 25.6106770833333  11.0541294642857 24.83203125  C 9.16276041666667 24.1662326388889  7.87686011904762 23.8333333333333  7.19642857142857 23.8333333333333  L 2.21428571428571 23.8333333333333  C 1.6030505952381 23.8333333333333  1.08119419642857 23.6217447916667  0.648716517857143 23.1985677083333  C 0.216238839285714 22.775390625  0 22.2647569444444  0 21.6666666666667  L 0 10.8333333333333  C 0 10.2352430555556  0.216238839285714 9.724609375  0.648716517857143 9.30143229166667  C 1.08119419642857 8.87825520833333  1.6030505952381 8.66666666666667  2.21428571428571 8.66666666666667  L 7.19642857142857 8.66666666666667  C 7.31175595238095 8.66666666666667  7.43573288690476 8.64127604166667  7.568359375 8.59049479166667  C 7.70098586309524 8.53971354166667  7.83649553571428 8.46072048611111  7.97488839285714 8.353515625  C 8.11328125 8.24631076388889  8.24302455357143 8.14474826388889  8.36411830357143 8.048828125  C 8.48521205357143 7.95290798611111  8.62360491071428 7.82595486111111  8.779296875 7.66796875  C 8.93498883928572 7.50998263888889  9.05319940476191 7.388671875  9.13392857142857 7.30403645833333  C 9.21465773809524 7.21940104166667  9.32421875 7.09809027777778  9.46261160714286 6.94010416666667  C 9.60100446428572 6.78211805555555  9.68173363095238 6.68619791666667  9.70479910714286 6.65234375  C 10.4544270833333 5.81727430555555  11.0310639880952 5.08940972222222  11.4347098214286 4.46875  C 11.5846354166667 4.23177083333333  11.7749255952381 3.88194444444444  12.0055803571429 3.41927083333333  C 12.2362351190476 2.95659722222222  12.4495907738095 2.55034722222222  12.6456473214286 2.20052083333333  C 12.8417038690476 1.85069444444444  13.0752418154762 1.49522569444444  13.3462611607143 1.13411458333333  C 13.6172805059524 0.77300347222222  13.9344308035714 0.49370659722222  14.2977120535714 0.296223958333332  C 14.6609933035714 0.0987413194444422  15.061755952381 0  15.5 0  C 16.9415922619048 0  18.1323474702381 0.378038194444442  19.072265625 1.13411458333333  C 20.0121837797619 1.89019097222222  20.4821428571429 2.95659722222222  20.4821428571429 4.33333333333333  C 20.4821428571429 5.10069444444444  20.3552827380952 5.82291666666667  20.1015625 6.5  L 26.5714285714286 6.5  C 27.7708333333333 6.5  28.8087797619048 6.92881944444444  29.6852678571429 7.78645833333333  Z " fill-rule="nonzero" fill="#004a8f" stroke="none" transform="matrix(1 0 0 1 125 594 )" />
  </g>
</svg>