<?xml version="1.0" encoding="utf-8"?>
<svg version="1.1" xmlns:xlink="http://www.w3.org/1999/xlink" width="14px" height="11px" xmlns="http://www.w3.org/2000/svg">
  <g transform="matrix(1 0 0 1 -1001 -918 )">
    <path d="M 13.2187499999999 4.2265625  C 13.5156249999999 4.0234375  13.7760416666667 3.796875  14 3.546875  L 14 9.75  C 14 10.09375  13.8776041666666 10.3880208333333  13.6328125000001 10.6328125  C 13.3880208333333 10.8776041666667  13.0937500000001 11  12.7499999999999 11  L 1.25000000000007 11  C 0.90624999999992 11  0.611979166666702 10.8776041666667  0.367187499999853 10.6328125  C 0.122395833333378 10.3880208333333  0 10.09375  0 9.75  L 0 3.546875  C 0.229166666666702 3.80208333333331  0.4921875 4.02864583333331  0.78906250000008 4.2265625  C 2.67447916666665 5.5078125  3.96874999999992 6.40625  4.67187500000008 6.921875  C 4.96875000000007 7.140625  5.20963541666662 7.31119791666669  5.39453124999993 7.43359375  C 5.57942708333334 7.55598958333331  5.82552083333334 7.68098958333331  6.13281249999993 7.80859375  C 6.44010416666662 7.93619791666669  6.7265625 8  6.99218750000007 8  L 7 8  L 7.00781249999993 8  C 7.2734375 8  7.55989583333338 7.93619791666669  7.86718750000007 7.80859375  C 8.17447916666666 7.68098958333331  8.42057291666666 7.55598958333331  8.60546875000007 7.43359375  C 8.79036458333338 7.31119791666669  9.03124999999993 7.140625  9.32812499999992 6.921875  C 10.2135416666666 6.28125  11.5104166666667 5.3828125  13.2187499999999 4.2265625  Z M 13.6289062499999 0.367187500000001  C 13.8763020833334 0.611979166666685  14 0.906250000000001  14 1.25  C 14 1.66145833333332  13.8723958333333 2.0546875  13.6171875 2.4296875  C 13.3619791666667 2.8046875  13.0442708333333 3.125  12.6640624999999 3.390625  C 10.7057291666666 4.75  9.48697916666666 5.59635416666669  9.00781249999985 5.9296875  C 8.95572916666662 5.96614583333331  8.84505208333338 6.04557291666669  8.67578124999993 6.16796875  C 8.50651041666668 6.29036458333332  8.36588541666666 6.38932291666669  8.25390625000008 6.46484375  C 8.14192708333341 6.54036458333331  8.00651041666665 6.625  7.84765625 6.71875  C 7.68880208333335 6.8125  7.53906250000007 6.8828125  7.39843750000015 6.9296875  C 7.25781249999985 6.9765625  7.12760416666673 7  7.00781249999993 7  L 7 7  L 6.99218750000007 7  C 6.87239583333327 7  6.74218750000015 6.9765625  6.60156249999985 6.9296875  C 6.46093749999993 6.8828125  6.31119791666665 6.8125  6.15234375 6.71875  C 5.99348958333335 6.625  5.8580729166666 6.54036458333331  5.74609374999992 6.46484375  C 5.63411458333334 6.38932291666669  5.49348958333333 6.29036458333332  5.32421875000007 6.16796875  C 5.15494791666662 6.04557291666669  5.04427083333338 5.96614583333331  4.99218750000015 5.9296875  C 4.5182291666666 5.59635416666669  3.83593749999993 5.12109375  2.94531250000007 4.50390625  C 2.05468749999992 3.88671875  1.5208333333333 3.515625  1.34374999999992 3.390625  C 1.02083333333327 3.171875  0.716145833333351 2.87109375  0.429687500000067 2.48828125  C 0.143229166666595 2.10546875  0 1.75  0 1.421875  C 0 1.015625  0.108072916666662 0.677083333333315  0.32421875000008 0.406249999999999  C 0.540364583333405 0.135416666666686  0.848958333333338 0  1.25000000000007 0  L 12.7499999999999 0  C 13.0885416666667 0  13.3815104166667 0.122395833333314  13.6289062499999 0.367187500000001  Z " fill-rule="nonzero" fill="#004a8f" stroke="none" transform="matrix(1 0 0 1 1001 918 )" />
  </g>
</svg>