<?xml version="1.0" encoding="utf-8"?>
<svg version="1.1" xmlns:xlink="http://www.w3.org/1999/xlink" width="18px" height="22px" xmlns="http://www.w3.org/2000/svg">
  <g transform="matrix(1 0 0 1 -9 -5607 )">
    <path d="M 7.33167613636364 21.3751406074241  C 7.70241477272727 21.1235470566179  7.88778409090909 20.9070116235471  7.88778409090909 20.7255343082115  C 7.88778409090909 20.6347956505437  7.83238636363636 20.3955755530559  7.72159090909091 20.007874015748  C 7.61079545454546 19.6201724784402  7.47869318181818 19.1788526434196  7.32528409090909 18.6839145106862  C 7.171875 18.1889763779528  7.08664772727273 17.904386951631  7.06960227272727 17.830146231721  C 7.06107954545455 17.7971503562055  7.03977272727273 17.6878515185602  7.00568181818182 17.5022497187852  C 6.97159090909091 17.3166479190101  6.93536931818182 17.1681664791901  6.89701704545455 17.0568053993251  C 6.85866477272727 16.9454443194601  6.80113636363636 16.856767904012  6.72443181818182 16.7907761529809  C 6.59659090909091 16.6752905886764  6.37926136363636 16.6175478065242  6.07244318181818 16.6175478065242  C 5.87642045454546 16.6175478065242  5.578125 16.6402324709411  5.17755681818182 16.685601799775  C 4.77698863636364 16.7309711286089  4.47443181818182 16.7536557930259  4.26988636363636 16.7536557930259  C 3.98011363636364 16.7536557930259  3.77982954545455 16.708286464192  3.66903409090909 16.6175478065242  C 3.61789772727273 16.5763029621297  3.57102272727273 16.5123734533183  3.52840909090909 16.42575928009  C 3.48579545454545 16.3391451068616  3.45383522727273 16.2566554180727  3.43252840909091 16.1782902137233  C 3.41122159090909 16.0999250093738  3.38352272727273 16.0009373828271  3.34943181818182 15.8813273340832  C 3.31534090909091 15.7617172853393  3.29403409090909 15.6854143232096  3.28551136363636 15.652418447694  C 2.97017045454545 14.5965504311961  2.8125 13.5448068991376  2.8125 12.4971878515186  C 2.8125 11.4495688038995  2.97017045454545 10.397825271841  3.28551136363636 9.34195725534308  C 3.29403409090909 9.30896137982752  3.31534090909091 9.23265841769779  3.34943181818182 9.11304836895388  C 3.38352272727273 8.99343832020997  3.41122159090909 8.89445069366329  3.43252840909091 8.81608548931384  C 3.45383522727273 8.73772028496438  3.48579545454545 8.65523059617548  3.52840909090909 8.56861642294713  C 3.57102272727273 8.48200224971879  3.61789772727273 8.41807274090739  3.66903409090909 8.37682789651294  C 3.77982954545455 8.28608923884514  3.98011363636364 8.24071991001125  4.26988636363636 8.24071991001125  C 4.47443181818182 8.24071991001125  4.77698863636364 8.2634045744282  5.17755681818182 8.30877390326209  C 5.578125 8.35414323209599  5.87642045454546 8.37682789651294  6.07244318181818 8.37682789651294  C 6.37926136363636 8.37682789651294  6.59659090909091 8.3190851143607  6.72443181818182 8.20359955005624  C 6.80113636363636 8.13760779902512  6.85866477272727 8.04893138357705  6.89701704545455 7.93757030371204  C 6.93536931818182 7.82620922384702  6.97159090909091 7.677727784027  7.00568181818182 7.49212598425197  C 7.03977272727273 7.30652418447694  7.06107954545455 7.19722534683164  7.06960227272727 7.16422947131609  C 7.08664772727273 7.08998875140607  7.171875 6.80539932508437  7.32528409090909 6.31046119235095  C 7.47869318181818 5.81552305961755  7.61079545454546 5.37420322459692  7.72159090909091 4.98650168728909  C 7.83238636363636 4.59880014998125  7.88778409090909 4.35958005249344  7.88778409090909 4.26884139482565  C 7.88778409090909 4.08736407949006  7.70241477272727 3.8708286464192  7.33167613636364 3.61923509561305  C 6.9609375 3.3676415448069  6.63920454545455 3.19235095613048  6.36647727272727 3.0933633295838  C 6.19602272727273 3.02737157855268  6.00426136363636 2.99437570303712  5.79119318181818 2.99437570303712  C 5.50142045454546 2.99437570303712  5.08380681818182 3.06861642294713  4.53835227272727 3.21709786276715  C 4.05255681818182 3.35733033370829  3.64133522727273 3.52437195350581  3.3046875 3.71822272215973  C 2.96803977272727 3.91207349081365  2.66548295454546 4.18428946381702  2.39701704545455 4.53487064116985  C 2.12855113636364 4.88545181852268  1.93252840909091 5.17416572928384  1.80894886363636 5.40101237345332  C 1.68536931818182 5.6278590176228  1.49147727272727 6.01762279715036  1.22727272727273 6.570303712036  C 1.17613636363636 6.66929133858268  1.13778409090909 6.74765654293213  1.11221590909091 6.80539932508437  C 0.694602272727273 7.68803899512561  0.404829545454545 8.57892763404574  0.242897727272727 9.47806524184477  C 0.0809659090909091 10.3772028496438  0 11.3835770528684  0 12.4971878515186  C 0 13.6107986501687  0.0809659090909091 14.6171728533933  0.242897727272727 15.5163104611924  C 0.404829545454545 16.4154480689914  0.694602272727273 17.3063367079115  1.11221590909091 18.1889763779528  C 1.58948863636364 19.1953505811774  1.94318181818182 19.859392575928  2.17329545454545 20.1811023622047  C 2.71022727272727 20.9317585301837  3.47301136363636 21.4555680539933  4.46164772727273 21.7525309336333  L 4.53835227272727 21.77727784027  C 5.08380681818182 21.92575928009  5.50142045454546 22  5.79119318181818 22  C 6.00426136363636 22  6.19602272727273 21.9670041244844  6.36647727272727 21.9010123734533  C 6.63920454545455 21.8020247469066  6.9609375 21.6267341582302  7.33167613636364 21.3751406074241  Z M 10.4957386363636 9.19347581552306  C 10.3167613636364 9.35020622422197  10.125 9.42857142857143  9.92045454545455 9.42857142857143  C 9.69886363636364 9.42857142857143  9.50710227272727 9.35020622422197  9.34517045454546 9.19347581552306  C 9.18323863636364 9.03674540682415  9.10227272727273 8.8490813648294  9.10227272727273 8.63048368953881  C 9.10227272727273 8.41188601424822  9.18323863636364 8.22422197225347  9.34517045454546 8.06749156355456  C 9.66051136363636 7.76227971503562  9.81818181818182 7.39107611548556  9.81818181818182 6.95388076490439  C 9.81818181818182 6.5249343832021  9.66051136363636 6.1496062992126  9.34517045454546 5.82789651293588  C 9.18323863636364 5.67116610423697  9.10227272727273 5.48556430446194  9.10227272727273 5.2710911136108  C 9.10227272727273 5.05661792275965  9.18323863636364 4.87101612298463  9.34517045454546 4.71428571428571  C 9.50710227272727 4.5575553055868  9.69886363636364 4.47919010123735  9.92045454545455 4.47919010123735  C 10.1420454545455 4.47919010123735  10.3338068181818 4.5575553055868  10.4957386363636 4.71428571428571  C 11.1349431818182 5.33295838020247  11.4545454545455 6.07949006374203  11.4545454545455 6.95388076490439  C 11.4545454545455 7.82827146606674  11.1349431818182 8.5748031496063  10.4957386363636 9.19347581552306  Z M 12.8096590909091 11.4330708661417  C 12.65625 11.5898012748406  12.4644886363636 11.6681664791901  12.234375 11.6681664791901  C 12.0042613636364 11.6681664791901  11.8125 11.5898012748406  11.6590909090909 11.4330708661417  C 11.4971590909091 11.2763404574428  11.4161931818182 11.0907386576678  11.4161931818182 10.8762654668166  C 11.4161931818182 10.6617922759655  11.4971590909091 10.4761904761905  11.6590909090909 10.3194600674916  C 12.6136363636364 9.37907761529809  13.0909090909091 8.25721784776903  13.0909090909091 6.95388076490439  C 13.0909090909091 5.65054368203974  12.6136363636364 4.52868391451069  11.6590909090909 3.58830146231721  C 11.4971590909091 3.4315710536183  11.4161931818182 3.24596925384327  11.4161931818182 3.03149606299213  C 11.4161931818182 2.81702287214098  11.4971590909091 2.63142107236595  11.6590909090909 2.47469066366704  C 11.8210227272727 2.31796025496813  12.0127840909091 2.23959505061867  12.234375 2.23959505061867  C 12.4559659090909 2.23959505061867  12.6477272727273 2.31796025496813  12.8096590909091 2.47469066366704  C 14.0880681818182 3.71203599550056  14.7272727272727 5.20509936257968  14.7272727272727 6.95388076490439  C 14.7272727272727 8.7026621672291  14.0880681818182 10.1957255343082  12.8096590909091 11.4330708661417  Z M 15.1235795454545 13.6726659167604  C 14.9701704545455 13.8293963254593  14.7784090909091 13.9077615298088  14.5482954545455 13.9077615298088  C 14.3181818181818 13.9077615298088  14.1264204545455 13.8293963254593  13.9730113636364 13.6726659167604  C 13.8110795454545 13.5159355080615  13.7301136363636 13.3303337082865  13.7301136363636 13.1158605174353  C 13.7301136363636 12.9013873265842  13.8110795454545 12.7157855268091  13.9730113636364 12.5590551181102  C 14.7400568181818 11.8083989501312  15.3302556818182 10.9505061867267  15.7436079545455 9.98537682789651  C 16.1569602272727 9.02024746906637  16.3636363636364 8.00974878140232  16.3636363636364 6.95388076490439  C 16.3636363636364 5.89801274840645  16.1569602272727 4.88751406074241  15.7436079545455 3.92238470191226  C 15.3302556818182 2.95725534308211  14.7400568181818 2.09936257967754  13.9730113636364 1.34870641169854  C 13.8110795454545 1.19197600299963  13.7301136363636 1.0063742032246  13.7301136363636 0.791901012373454  C 13.7301136363636 0.577427821522308  13.8110795454545 0.39182602174728  13.9730113636364 0.235095613048369  C 14.1349431818182 0.0783652043494556  14.3267045454545 0  14.5482954545455 0  C 14.7698863636364 0  14.9616477272727 0.0783652043494556  15.1235795454545 0.235095613048369  C 16.0525568181818 1.13423322084739  16.7642045454545 2.16122984626921  17.2585227272727 3.31608548931384  C 17.7528409090909 4.47094113235845  18 5.68353955755531  18 6.95388076490439  C 18 8.22422197225347  17.7528409090909 9.43682039745032  17.2585227272727 10.5916760404949  C 16.7642045454545 11.7465316835396  16.0525568181818 12.7735283089614  15.1235795454545 13.6726659167604  Z " fill-rule="nonzero" fill="#ffffff" stroke="none" transform="matrix(1 0 0 1 9 5607 )" />
  </g>
</svg>