<!-- Generator: Adobe Illustrator 24.0.0, SVG Export Plug-In  -->
<svg version="1.1" xmlns="http://www.w3.org/2000/svg" xmlns:xlink="http://www.w3.org/1999/xlink" x="0px" y="0px"
	 width="106.43px" height="124.46px" viewBox="0 0 106.43 124.46" style="enable-background:new 0 0 106.43 124.46;"
	 xml:space="preserve">
<style type="text/css">
	.st0{fill:none;stroke:#346A6B;stroke-width:3;stroke-miterlimit:10;}
</style>
<defs>
</defs>
<g>
	<g>
		<g id="XMLID_1_">
			<g>
				<path class="st0" d="M52.91,18.71c5.52,0,9.98,4.48,9.98,9.98s-4.47,9.98-9.98,9.98c-5.5,0-9.97-4.48-9.97-9.98
					S47.41,18.71,52.91,18.71z"/>
				<polygon class="st0" points="25.87,117.09 36.54,117.09 69.9,117.09 80.56,117.09 80.56,122.96 25.87,122.96 				"/>
				<polygon class="st0" points="64.99,98.44 69.9,117.09 36.54,117.09 41.45,98.44 				"/>
				<path class="st0" d="M6.35,86.47h93.74c2.67,0,4.85-2.19,4.85-4.86v11.1c0,3.14-2.58,5.73-5.73,5.73h-34.2H41.45H31.44H7.25
					c-3.16,0-5.75-2.59-5.75-5.73v-11.1C1.5,84.28,3.68,86.47,6.35,86.47z M51.05,92.46c0,1.19,0.98,2.15,2.16,2.15
					c1.2,0,2.16-0.96,2.16-2.15c0-1.2-0.96-2.18-2.16-2.18C52.03,90.28,51.05,91.26,51.05,92.46z"/>
				<polygon class="st0" points="20.25,67.54 20.25,69.8 20.25,72.02 12.28,72.02 12.28,67.54 				"/>
				<polygon class="st0" points="60.79,65.36 60.79,69.8 60.79,74.23 45.06,74.23 45.06,65.36 				"/>
				<polygon class="st0" points="85.56,67.54 93.51,67.54 93.51,72.02 85.56,72.02 85.56,69.8 				"/>
				<path class="st0" d="M50.96,55.87l-1.13-7.52c-1.42-0.23-2.77-0.58-4.08-1.08l-4.73,5.93l-3.38-1.95l2.77-7.07
					c-1.1-0.88-2.11-1.91-2.99-2.99l-7.07,2.79L28.4,40.6l5.95-4.74c-0.5-1.29-0.88-2.68-1.1-4.08l-7.52-1.13v-1.95v-1.95l7.52-1.13
					c0.21-1.43,0.59-2.79,1.1-4.1l-0.98-0.76l-4.97-3.96l1.95-3.38l7.07,2.79c0.88-1.11,1.89-2.1,2.99-3l-2.77-7.07l3.38-1.95
					l4.73,5.94c1.31-0.5,2.66-0.88,4.08-1.08l1.13-7.53h3.9L56,9.03c1.4,0.2,2.77,0.58,4.08,1.08l4.72-5.94l3.39,1.95l-2.79,7.07
					c1.11,0.9,2.11,1.89,2.99,3l7.09-2.79l1.95,3.38l-4.97,3.96l-0.98,0.76c0.5,1.31,0.87,2.67,1.1,4.1l7.51,1.13v1.95v1.94
					l-7.51,1.14c-0.23,1.4-0.59,2.79-1.1,4.08l5.95,4.74l-1.95,3.37l-7.09-2.77c-0.88,1.08-1.87,2.1-2.99,2.99l2.79,7.07l-3.39,1.95
					l-4.72-5.93c-1.31,0.5-2.68,0.86-4.08,1.08l-1.14,7.52H50.96z M42.94,28.69c0,5.5,4.47,9.98,9.97,9.98
					c5.52,0,9.98-4.48,9.98-9.98s-4.47-9.98-9.98-9.98C47.41,18.71,42.94,23.19,42.94,28.69z"/>
				<path class="st0" d="M12.28,67.54v4.48h7.97V69.8v-2.26H12.28z M93.51,67.54h-7.95v2.26v2.23h7.95V67.54z M60.79,65.36H45.06
					v8.87h15.73V69.8V65.36z M49.83,48.35l1.13,7.52h3.9L56,48.35c1.4-0.23,2.77-0.58,4.08-1.08l4.72,5.93l3.39-1.95l-2.79-7.07
					c1.11-0.88,2.11-1.91,2.99-2.99l7.09,2.77l1.95-3.37l-5.95-4.74c0.5-1.29,0.87-2.68,1.1-4.08l7.51-1.14v-1.94v-1.95l-7.51-1.13
					c-0.23-1.43-0.59-2.79-1.1-4.1l0.98-0.76H99.2c3.15,0,5.73,2.58,5.73,5.73v55.13c0,2.67-2.18,4.86-4.85,4.86H6.35
					c-2.67,0-4.85-2.19-4.85-4.86V26.48c0-3.15,2.59-5.73,5.75-5.73h26.12l0.98,0.76c-0.5,1.31-0.88,2.67-1.1,4.1l-7.52,1.13v1.95
					v1.95l7.52,1.13c0.21,1.4,0.59,2.79,1.1,4.08L28.4,40.6l1.95,3.38l7.07-2.79c0.88,1.08,1.89,2.1,2.99,2.99l-2.77,7.07l3.38,1.95
					l4.73-5.93C47.05,47.77,48.41,48.12,49.83,48.35z"/>
			</g>
			<g>
				<path class="st0" d="M41.45,98.44H31.44H7.25c-3.16,0-5.75-2.59-5.75-5.73v-11.1V26.48c0-3.15,2.59-5.73,5.75-5.73h26.12"/>
				<path class="st0" d="M72.46,20.75H99.2c3.15,0,5.73,2.58,5.73,5.73v55.13v11.1c0,3.14-2.58,5.73-5.73,5.73h-34.2"/>
				<path class="st0" d="M104.93,81.61c0,2.67-2.18,4.86-4.85,4.86H6.35c-2.67,0-4.85-2.19-4.85-4.86"/>
				<polyline class="st0" points="36.54,117.09 41.45,98.44 64.99,98.44 69.9,117.09 				"/>
				<path class="st0" d="M53.21,90.28c1.2,0,2.16,0.98,2.16,2.18c0,1.19-0.96,2.15-2.16,2.15c-1.19,0-2.16-0.96-2.16-2.15
					C51.05,91.26,52.03,90.28,53.21,90.28z"/>
				<polygon class="st0" points="69.9,117.09 80.56,117.09 80.56,122.96 25.87,122.96 25.87,117.09 36.54,117.09 				"/>
				<path class="st0" d="M52.91,18.71c5.52,0,9.98,4.48,9.98,9.98s-4.47,9.98-9.98,9.98c-5.5,0-9.97-4.48-9.97-9.98
					S47.41,18.71,52.91,18.71z"/>
				<path class="st0" d="M33.37,20.75l0.98,0.76c-0.5,1.31-0.88,2.67-1.1,4.1l-7.52,1.13v1.95v1.95l7.52,1.13
					c0.21,1.4,0.59,2.79,1.1,4.08L28.4,40.6l1.95,3.38l7.07-2.79c0.88,1.08,1.89,2.1,2.99,2.99l-2.77,7.07l3.38,1.95l4.73-5.93
					c1.31,0.5,2.66,0.86,4.08,1.08l1.13,7.52h3.9L56,48.35c1.4-0.23,2.77-0.58,4.08-1.08l4.72,5.93l3.39-1.95l-2.79-7.07
					c1.11-0.88,2.11-1.91,2.99-2.99l7.09,2.77l1.95-3.37l-5.95-4.74c0.5-1.29,0.87-2.68,1.1-4.08l7.51-1.14v-1.94v-1.95l-7.51-1.13
					c-0.23-1.43-0.59-2.79-1.1-4.1l0.98-0.76l4.97-3.96l-1.95-3.38l-7.09,2.79c-0.88-1.11-1.87-2.1-2.99-3l2.79-7.07l-3.39-1.95
					l-4.72,5.94C58.77,9.61,57.4,9.23,56,9.03L54.86,1.5h-3.9l-1.13,7.53c-1.42,0.2-2.77,0.58-4.08,1.08l-4.73-5.94l-3.38,1.95
					l2.77,7.07c-1.1,0.9-2.11,1.89-2.99,3l-7.07-2.79l-1.95,3.38L33.37,20.75z"/>
				<polygon class="st0" points="45.06,65.36 60.79,65.36 60.79,69.8 60.79,74.23 45.06,74.23 				"/>
				<polygon class="st0" points="85.56,67.54 93.51,67.54 93.51,72.02 85.56,72.02 85.56,69.8 				"/>
				<line class="st0" x1="60.79" y1="69.8" x2="85.56" y2="69.8"/>
				<polygon class="st0" points="20.25,67.54 12.28,67.54 12.28,72.02 20.25,72.02 20.25,69.8 				"/>
				<line class="st0" x1="45" y1="69.8" x2="20.25" y2="69.8"/>
			</g>
		</g>
	</g>
</g>
</svg>
