<!-- Generator: Adobe Illustrator 24.0.0, SVG Export Plug-In  -->
<svg version="1.1" xmlns="http://www.w3.org/2000/svg" xmlns:xlink="http://www.w3.org/1999/xlink" x="0px" y="0px" width="84.24px"
	 height="84.24px" viewBox="0 0 84.24 84.24" style="enable-background:new 0 0 84.24 84.24;" xml:space="preserve">
<style type="text/css">
	.st0{fill:#346A6B;}
</style>
<defs>
</defs>
<g>
	<path class="st0" d="M51.67,39.27c0.66,0.18,1.33-0.21,1.51-0.87c0.83-3.09,3.26-5.53,6.35-6.35c0.66-0.18,1.05-0.85,0.87-1.51
		c-0.83-3.09,0.06-6.42,2.33-8.68c0.48-0.48,0.48-1.26,0-1.74c-2.26-2.26-3.15-5.59-2.33-8.68c0.18-0.66-0.21-1.33-0.87-1.51
		c-3.09-0.83-5.53-3.26-6.35-6.35c-0.18-0.66-0.85-1.05-1.51-0.87c-3.09,0.83-6.42-0.06-8.68-2.33c-0.48-0.48-1.26-0.48-1.74,0
		c-2.26,2.26-5.59,3.15-8.68,2.33c-0.66-0.18-1.33,0.21-1.51,0.87c-0.83,3.09-3.26,5.53-6.35,6.35c-0.66,0.18-1.05,0.85-0.87,1.51
		c0.83,3.09-0.06,6.42-2.33,8.68c-0.48,0.48-0.48,1.26,0,1.74c2.26,2.26,3.15,5.59,2.33,8.68c-0.18,0.66,0.21,1.33,0.87,1.51
		c3.09,0.83,5.53,3.26,6.35,6.35c0.18,0.66,0.85,1.05,1.51,0.87c3.09-0.83,6.42,0.06,8.68,2.33c0.24,0.24,0.56,0.36,0.87,0.36
		s0.63-0.12,0.87-0.36C45.25,39.33,48.58,38.44,51.67,39.27z M42.12,39.06c-2.05-1.67-4.62-2.57-7.24-2.57c-0.6,0-1.2,0.05-1.8,0.14
		c-1.16-3.04-3.58-5.46-6.62-6.62c0.51-3.21-0.37-6.52-2.42-9.04c2.05-2.53,2.94-5.83,2.42-9.04c3.04-1.16,5.46-3.58,6.62-6.62
		c3.21,0.51,6.52-0.37,9.04-2.42c2.53,2.05,5.83,2.94,9.04,2.42c1.16,3.04,3.58,5.46,6.62,6.62c-0.51,3.21,0.37,6.52,2.42,9.04
		c-2.05,2.53-2.94,5.83-2.42,9.04c-3.04,1.16-5.46,3.58-6.62,6.62C47.95,36.13,44.64,37.01,42.12,39.06L42.12,39.06z"/>
	<path class="st0" d="M56.19,20.98c0-7.76-6.31-14.07-14.07-14.07s-14.07,6.31-14.07,14.07s6.31,14.07,14.07,14.07
		S56.19,28.73,56.19,20.98z M42.12,32.58c-6.4,0-11.6-5.2-11.6-11.6s5.2-11.6,11.6-11.6s11.6,5.2,11.6,11.6S48.52,32.58,42.12,32.58
		z"/>
	<path class="st0" d="M37.63,49.48L20.48,32.33c-2.21-2.21-5.72-2.44-8.14-0.64V7.62c1.44,0.51,2.47,1.88,2.47,3.49v15.64
		c0,0.68,0.55,1.23,1.23,1.23c0.68,0,1.23-0.55,1.23-1.23V11.11c0-3.02-2.19-5.54-5.06-6.07C11.66,2.24,9.24,0.08,6.34,0
		C4.64-0.04,3.03,0.59,1.82,1.8C0.63,2.98,0,4.61,0,6.29v36.33c0,1.4,0.34,2.79,1.05,3.99c0,0,11.23,18.54,11.23,18.54l-1.05,5.76
		H8.44c-0.6,0-1.11,0.43-1.21,1.01l-0.71,3.92H2.33c-0.59,0-1.11,0.42-1.21,1.01l-1.09,5.89c-0.04,0.22-0.03,0.45,0.04,0.67
		c0.18,0.51,0.66,0.82,1.16,0.82h38.39c0.17,0,0.35-0.03,0.5-0.09c0.48-0.2,0.76-0.66,0.76-1.14V57.34
		C40.89,54.37,39.73,51.58,37.63,49.48L37.63,49.48z M14.63,64.27L3.18,45.37c-0.47-0.89-0.72-1.88-0.72-2.89V6.17
		c0-1.01,0.4-1.95,1.12-2.65c0.72-0.7,1.68-1.08,2.69-1.05c1.98,0.05,3.6,1.76,3.6,3.8v30.35c0,1.65,0.64,3.19,1.81,4.36
		l17.23,17.23c0.48,0.48,1.26,0.48,1.74,0c0.48-0.48,0.48-1.26,0-1.74L13.42,39.24c-0.71-0.71-1.1-1.66-1.08-2.67
		c0.01-1.01,0.43-1.95,1.16-2.64c1.44-1.36,3.79-1.3,5.23,0.15l17.16,17.16c1.63,1.63,2.53,3.8,2.53,6.11v13.57H13.74l1.05-5.78
		C14.84,64.83,14.79,64.53,14.63,64.27L14.63,64.27z M38.42,81.77H2.72l0.64-3.46h35.06V81.77z M9.02,75.85l0.45-2.47h28.95v2.47
		H9.02z"/>
	<path class="st0" d="M83.21,46.56c0.67-1.25,1.02-2.66,1.02-4.08V6.17c0-1.68-0.66-3.25-1.87-4.42C81.17,0.58,79.58-0.04,77.9,0
		C75,0.08,72.58,2.24,72.02,5.04c-2.87,0.53-5.06,3.04-5.06,6.07v15.64c0,0.68,0.55,1.23,1.23,1.23c0.68,0,1.23-0.55,1.23-1.23
		V11.11c0-1.61,1.03-2.98,2.47-3.49v24.07c-2.41-1.8-5.93-1.57-8.14,0.64L46.61,49.48c-2.1,2.1-3.25,4.89-3.25,7.85V83
		c0,0.33,0.13,0.64,0.36,0.87c0.23,0.23,0.55,0.36,0.87,0.36H83c0.37,0,0.71-0.16,0.95-0.44c0.23-0.28,0.33-0.65,0.26-1.01
		l-1.1-5.92c-0.11-0.58-0.62-1.01-1.21-1.01h-4.18l-0.71-3.92c-0.11-0.59-0.62-1.01-1.21-1.01h-2.79l-1.05-5.76
		C71.96,65.15,83.2,46.58,83.21,46.56z M81.52,81.77h-35.7v-3.46h35.06L81.52,81.77z M75.22,75.85h-29.4v-2.47h28.95L75.22,75.85z
		 M45.82,70.91V57.34c0-2.31,0.9-4.48,2.53-6.11l17.16-17.16c1.44-1.44,3.79-1.51,5.23-0.15c0.73,0.69,1.15,1.63,1.16,2.64
		c0.01,1.01-0.37,1.96-1.08,2.67L53.59,56.46c-0.48,0.48-0.48,1.26,0,1.74c0.48,0.48,1.26,0.48,1.74,0l17.23-17.23
		c1.17-1.17,1.81-2.71,1.81-4.36c0,0,0-30.35,0-30.35c0-2.04,1.61-3.75,3.6-3.8c1.01-0.03,1.96,0.34,2.69,1.05
		c0.72,0.7,1.12,1.65,1.12,2.65v36.31c0,1-0.25,2-0.72,2.89l-11.44,18.9c-0.16,0.26-0.21,0.56-0.16,0.86l1.05,5.78L45.82,70.91
		L45.82,70.91z"/>
</g>
</svg>
