<!-- Generator: Adobe Illustrator 24.0.0, SVG Export Plug-In  -->
<svg version="1.1" xmlns="http://www.w3.org/2000/svg" xmlns:xlink="http://www.w3.org/1999/xlink" x="0px" y="0px"
	 width="133.43px" height="133.38px" viewBox="0 0 133.43 133.38" style="enable-background:new 0 0 133.43 133.38;"
	 xml:space="preserve">
<style type="text/css">
	.st0{fill:#346A6B;}
</style>
<defs>
</defs>
<g>
	<path class="st0" d="M32.92,23.65c-0.02-0.29-0.14-0.5-0.24-0.72c-0.6-1.42-1.19-2.85-1.8-4.26c-0.15-0.35-0.12-0.57,0.15-0.85
		c3.57-3.55,7.13-7.12,10.7-10.68c0.34-0.34,0.35-0.34,0.75-0.08c1.93,1.25,3.86,2.49,5.77,3.76c0.38,0.25,0.66,0.3,1.08,0.07
		c2.22-1.24,4.57-2.21,7.02-2.91c0.37-0.1,0.52-0.28,0.6-0.65c0.47-2.29,0.96-4.57,1.45-6.85C58.5,0.01,58.51,0,58.99,0
		c5.14,0,10.28,0,15.43,0c0.49,0,0.49,0.01,0.6,0.48C75.5,2.74,75.99,5,76.45,7.27c0.08,0.38,0.21,0.59,0.61,0.7
		c2.47,0.7,4.83,1.69,7.08,2.93c0.35,0.19,0.59,0.2,0.93-0.03c1.89-1.26,3.81-2.49,5.71-3.73c0.63-0.41,0.51-0.4,0.99,0.08
		c3.52,3.52,7.04,7.04,10.56,10.56c0.4,0.4,0.4,0.4,0.17,0.93c-0.61,1.44-1.23,2.88-1.84,4.32c-0.08,0.18-0.22,0.35-0.17,0.56
		c0.1,0.12,0.23,0.08,0.34,0.08c5.83-0.01,10.13,2.67,13.15,7.53c1.52,2.45,2.19,5.18,2.22,8.07c0.01,1.2,0.02,2.4,0,3.6
		c-0.08,5.01-2.06,9.07-6.01,12.17c-0.21,0.17-0.48,0.28-0.46,0.65c0.04,0.73-0.08,0.68,0.63,0.85c2.7,0.67,5.39,1.35,8.09,2.02
		c0.85,0.21,1.68,0.48,2.45,0.91c0.32,0.18,0.57,0.17,0.89,0c2.1-1.12,4.21-2.21,6.31-3.33c0.31-0.17,0.62-0.25,0.98-0.25
		c1.28,0.02,2.56,0,3.84,0.01c0.47,0,0.47,0.01,0.48,0.47c0,0.12,0,0.24,0,0.37c0,9.96-0.01,19.92,0.01,29.87
		c0,0.56-0.16,0.85-0.67,1.11c-12.45,6.21-24.89,12.43-37.34,18.65c-0.07,0.04-0.14,0.08-0.22,0.11c-0.43,0.13-0.54,0.4-0.54,0.86
		c0.03,3.42-2.47,6.22-5.85,6.6c-0.58,0.07-0.58,0.07-0.63,0.64c-0.22,2.9-2.73,5.49-5.61,5.81c-0.77,0.08-0.77,0.08-0.86,0.87
		c-0.33,2.87-2.87,5.35-5.75,5.6c-0.64,0.06-0.64,0.06-0.69,0.71c-0.26,2.94-2.85,5.5-5.8,5.76c-1.47,0.13-2.88-0.03-4.19-0.74
		c-0.56-0.3-1.05-0.69-1.52-1.11c-0.42-0.38-0.86-0.74-1.27-1.14c-0.23-0.22-0.41-0.25-0.69-0.08c-0.75,0.46-1.57,0.74-2.45,0.87
		c-3.16,0.46-6.21-1.36-7.28-4.37c-0.18-0.52-0.34-1.05-0.35-1.6c-0.01-0.29-0.1-0.43-0.42-0.46c-0.63-0.05-1.25-0.18-1.83-0.43
		c-2.45-1.05-3.87-2.88-4.2-5.53c-0.05-0.38-0.18-0.46-0.51-0.5c-1.41-0.15-2.67-0.69-3.73-1.64c-1.28-1.14-2.02-2.57-2.22-4.28
		c-0.05-0.45-0.05-0.45-0.53-0.52c-2.6-0.39-4.45-1.76-5.49-4.19c-0.26-0.6-0.42-1.23-0.45-1.89c-0.01-0.27-0.11-0.44-0.34-0.59
		c-1.92-1.14-3.83-2.3-5.75-3.44c-0.39-0.23-0.4-0.22-0.53,0.2c-0.11,0.35-0.22,0.7-0.31,1.05c-0.05,0.22-0.17,0.3-0.38,0.3
		c-1.24,0-2.48,0-3.72-0.01c-0.2,0-0.39-0.09-0.59-0.16C14,100.87,7.3,98.63,0.6,96.4c-0.73-0.24-0.59-0.18-0.59-0.84
		c0-12.82,0-25.65,0-38.47c0-1.65,0-3.29,0-4.94c0-0.52,0.01-0.53,0.54-0.53c2.03,0,4.06,0.01,6.1-0.01c0.32,0,0.59,0.1,0.85,0.26
		c3.23,1.89,6.46,3.76,9.68,5.66c0.42,0.25,0.79,0.31,1.25,0.18c1.57-0.42,3.15-0.8,4.72-1.2c0.2-0.05,0.5-0.02,0.5-0.33
		c0-0.32,0.17-0.7-0.2-0.96c-0.08-0.06-0.16-0.12-0.24-0.18c-3.44-2.69-5.43-6.18-5.92-10.53c-0.12-1.04-0.08-2.07-0.08-3.1
		c0.01-1.44-0.07-2.88,0.09-4.32c0.38-3.37,1.72-6.28,4.06-8.73c2.54-2.66,5.65-4.19,9.3-4.61c0.62-0.07,1.26-0.05,1.89-0.07
		C32.66,23.66,32.78,23.65,32.92,23.65z M129.01,60.62c-0.28,0.05-0.48,0.19-0.69,0.3c-2.82,1.48-5.64,2.97-8.47,4.46
		c-9.81,5.16-19.64,10.31-29.43,15.52c-1.16,0.62-2.29,0.96-3.58,0.82c-0.68-0.07-1.37-0.04-2.05-0.24
		c-4.25-1.23-8.51-2.44-12.76-3.65c-2.35-0.67-4.62-0.45-6.81,0.62c-0.89,0.44-1.78,0.89-2.67,1.33c-3.07,1.54-6.14,3.06-9.21,4.61
		c-1.72,0.87-2.26,3.23-1.12,4.76c0.91,1.22,2.52,1.54,3.86,0.73c2.65-1.58,5.29-3.18,7.95-4.76c3.3-1.96,7.42-1.58,10.25,0.96
		c4.96,4.45,9.91,8.92,14.86,13.38c1.13,1.02,2.27,2.03,3.39,3.06c0.23,0.21,0.43,0.28,0.69,0.1c0.07-0.05,0.15-0.07,0.22-0.11
		c11.68-5.84,23.36-11.68,35.05-17.51c0.45-0.23,0.58-0.49,0.58-0.98c-0.01-7.56-0.01-15.12-0.01-22.68
		C129.08,61.13,129.12,60.9,129.01,60.62z M61.93,75.16c-1.1-0.35-2.18-0.71-3.26-1.04c-3.63-1.11-7.31-1.3-11.02-0.51
		c-4.76,1.01-9.51,2.11-14.27,3.15c-0.42,0.09-0.59,0.29-0.7,0.69c-1.1,3.91-2.22,7.81-3.34,11.71c-0.72,2.52-1.43,5.04-2.16,7.55
		c-0.1,0.33-0.08,0.53,0.25,0.68c0.2,0.09,0.39,0.22,0.58,0.34c1.74,1.05,3.48,2.09,5.23,3.13c0.2,0.12,0.37,0.28,0.62,0
		c1.37-1.55,2.87-2.99,4.36-4.43c1.96-1.89,4.98-2.35,7.42-1.15c2.18,1.07,3.46,2.83,3.78,5.25c0.07,0.54,0.07,0.54,0.59,0.61
		c2.94,0.4,5.17,2.45,5.79,5.34c0.06,0.26,0.08,0.52,0.1,0.78c0.02,0.21,0.12,0.31,0.35,0.33c0.36,0.03,0.73,0.09,1.08,0.18
		c2.93,0.74,4.79,3.25,5,5.8c0.03,0.3,0.1,0.46,0.45,0.49c2.3,0.25,4.03,1.4,5.19,3.39c0.12,0.21,0.26,0.4,0.45,0.56
		c1.5,1.25,3,2.5,4.5,3.75c0.48,0.4,1.02,0.66,1.63,0.78c1.32,0.27,2.48-0.39,2.8-1.62c0.25-0.97-0.1-1.75-0.85-2.37
		c-1.81-1.51-3.62-3.02-5.43-4.52c-1.8-1.5-3.59-2.99-5.39-4.49c-0.38-0.32-0.38-0.33-0.08-0.7c0.54-0.66,1.09-1.31,1.64-1.97
		c0.17-0.2,0.33-0.41,0.51-0.61c0.31-0.36,0.31-0.36,0.66-0.08c0.11,0.09,0.22,0.18,0.33,0.27c3.54,2.95,7.1,5.9,10.62,8.87
		c0.71,0.6,1.47,0.9,2.39,0.82c0.93-0.07,1.71-0.64,2.01-1.52c0.32-0.93,0.04-1.82-0.83-2.54c-2.04-1.71-4.09-3.41-6.14-5.11
		c-1.55-1.29-3.09-2.57-4.64-3.86c-0.43-0.36-0.45-0.31-0.09-0.74c0.71-0.84,1.4-1.69,2.11-2.53c0.33-0.4,0.34-0.39,0.75-0.05
		c3.65,3.04,7.31,6.08,10.95,9.14c0.67,0.56,1.37,0.82,2.23,0.77c0.93-0.06,1.73-0.6,2.06-1.46c0.38-0.98,0.1-1.91-0.8-2.72
		c-3.58-3.22-7.16-6.44-10.74-9.66c-2.39-2.15-4.77-4.3-7.16-6.44c-1.13-1.02-2.46-1.38-3.96-1.07c-0.57,0.11-1.07,0.38-1.56,0.67
		c-2.56,1.54-5.1,3.1-7.69,4.6c-2.63,1.53-5.28,1.47-7.82-0.21c-2.82-1.88-3.75-5.26-2.83-8.47c0.58-2.02,1.89-3.47,3.77-4.4
		c3.31-1.65,6.61-3.31,9.92-4.96C61.53,75.45,61.76,75.39,61.93,75.16z M45.26,69.63c0.07,0.02,0.11,0.04,0.15,0.03
		c0.14-0.02,0.28-0.05,0.42-0.08c1.72-0.4,3.47-0.66,5.24-0.73c3.11-0.13,6.16,0.28,9.13,1.23c3.11,0.99,6.23,1.99,9.34,2.99
		c0.25,0.08,0.5,0.14,0.77,0.15c0.98,0.04,1.94,0.18,2.88,0.45c4.18,1.19,8.36,2.38,12.53,3.58c0.56,0.16,1.11,0.21,1.68,0.19
		c0.64-0.03,0.8-0.21,0.8-0.85c0-2.5,0-5,0-7.5c0-0.35,0-0.69-0.07-1.03c-0.57-2.75-2.19-4.53-4.92-5.23
		c-3.87-0.99-7.76-1.95-11.63-2.92c-0.58-0.15-0.58-0.14-0.58-0.76c0-1.65,0-3.29,0-4.94c0-0.4-0.12-0.85,0.05-1.2
		c0.18-0.36,0.66-0.44,0.99-0.67c0.07-0.05,0.14-0.08,0.21-0.12c3.28-2.11,5.05-5.1,5.19-9c0.05-1.36,0.01-2.72,0.01-4.08
		c0-1.36-0.26-2.66-0.73-3.93c-1.82-4.89-6.79-8.14-12.27-7c-4.67,0.97-8.35,5.27-8.47,10.05c-0.04,1.67-0.03,3.33-0.01,5
		c0.03,2.29,0.77,4.34,2.12,6.18c1.02,1.38,2.32,2.44,3.84,3.23c0.36,0.19,0.52,0.41,0.51,0.85c-0.03,1.89-0.01,3.78-0.01,5.67
		c0,0.6,0.13,0.56-0.6,0.74c-3.9,0.97-7.8,1.94-11.69,2.92c-1.88,0.47-3.28,1.58-4.19,3.28C45.35,67.21,45.11,68.39,45.26,69.63z
		 M115.98,62.53c-0.01-0.05-0.03-0.09-0.04-0.14c-1.2-0.3-2.4-0.6-3.6-0.9c-2.15-0.53-4.29-1.07-6.44-1.6
		c-0.5-0.12-0.5-0.13-0.5-0.65c0-1.93,0.01-3.86-0.01-5.79c0-0.38,0.11-0.61,0.45-0.76c0.27-0.13,0.53-0.29,0.79-0.46
		c3.26-2.08,5.06-5.03,5.21-8.91c0.06-1.46,0.03-2.93,0.01-4.39c-0.03-2.32-0.72-4.45-2.09-6.32c-2.58-3.54-6.06-5.15-10.43-4.49
		c-4.98,0.75-8.84,5.2-8.95,10.25c-0.04,1.62-0.03,3.25,0,4.88c0.04,2.13,0.68,4.07,1.88,5.83c1.05,1.55,2.44,2.71,4.08,3.58
		c0.37,0.19,0.51,0.43,0.5,0.86c-0.03,1.36-0.01,2.72-0.01,4.08c0,0.61-0.01,1.22,0,1.83c0,0.24-0.07,0.39-0.32,0.43
		c-0.1,0.02-0.2,0.05-0.3,0.07c-2.11,0.53-4.21,1.05-6.32,1.58c-0.13,0.03-0.29,0.01-0.34,0.19c0.02,0.04,0.04,0.08,0.07,0.11
		c2.01,2.21,2.95,4.81,2.9,7.79c-0.03,1.56-0.01,3.13,0,4.69c0,0.17-0.05,0.36,0.11,0.54C100.44,70.71,108.21,66.62,115.98,62.53z
		 M43.87,61.68c-0.16-0.16-0.31-0.16-0.44-0.2c-2.11-0.53-4.21-1.05-6.32-1.58c-0.53-0.13-0.53-0.13-0.53-0.68c0-1.67-0.01-3.33,0-5
		c0-0.42-0.14-0.9,0.07-1.26c0.2-0.34,0.66-0.44,1.01-0.65c3.49-2.16,5.28-5.29,5.37-9.39c0.03-1.2,0.01-2.4,0-3.6
		c0-1.52-0.27-2.99-0.84-4.4c-1.84-4.57-6.4-7.57-11.43-6.86c-4.82,0.67-8.85,4.74-9.18,9.78c-0.12,1.84-0.08,3.7-0.02,5.54
		c0.11,3.28,1.51,5.93,4.02,8.01c0.61,0.51,1.3,0.91,1.99,1.29c0.3,0.16,0.44,0.34,0.44,0.71c-0.02,1.95-0.01,3.9-0.01,5.85
		c0,0.51-0.01,0.52-0.52,0.64c-1.28,0.32-2.56,0.64-3.84,0.96c-0.12,0.03-0.3-0.02-0.35,0.22c0.19,0.12,0.4,0.25,0.61,0.37
		c3.35,1.96,6.7,3.91,10.05,5.86c0.35,0.2,0.48,0.41,0.46,0.81c-0.05,1.01-0.06,2.03-0.04,3.05c0.01,0.32-0.19,0.62-0.07,0.95
		c0.13-0.01,0.23-0.01,0.33-0.04c1.7-0.38,3.4-0.76,5.11-1.15c0.35-0.08,0.8-0.03,1.03-0.3c0.24-0.29,0.09-0.74,0.08-1.12
		c-0.01-1.58,0.24-3.11,0.86-4.57C42.24,63.73,42.96,62.65,43.87,61.68z M51.64,41.35c-0.02-1.82-0.06-3.17,0.11-4.5
		c0.47-3.57,1.99-6.64,4.63-9.1c3.61-3.36,7.9-4.64,12.76-3.9c3.04,0.46,5.65,1.88,7.84,4.03c2.81,2.76,4.4,6.11,4.73,10.03
		c0.16,1.94,0.12,3.9,0.04,5.85c-0.14,3.14-1.21,5.94-3.11,8.44c-0.85,1.12-1.84,2.12-3,2.93c-0.42,0.29-0.3,0.67-0.3,1.04
		c0.01,0.35,0.33,0.3,0.55,0.35c2.52,0.64,5.04,1.27,7.55,1.91c0.32,0.08,0.63,0.08,0.95,0c2.48-0.63,4.96-1.25,7.44-1.87
		c0.71-0.18,0.69-0.18,0.67-0.89c-0.01-0.33-0.22-0.45-0.43-0.61c-3.76-2.96-5.82-6.81-5.99-11.62c-0.06-1.62-0.01-3.25-0.01-4.88
		c0-2.1,0.45-4.11,1.33-6.02c0.18-0.4,0.16-0.7-0.05-1.07c-4.88-8.65-14.85-13.65-24.97-11.68c-7.28,1.41-12.74,5.45-16.43,11.89
		c-0.2,0.35-0.21,0.63-0.04,1.01c0.9,1.94,1.4,3.98,1.42,6.12c0.02,1.52,0.02,3.05,0,4.57c-0.02,2.19-0.56,4.26-1.51,6.22
		c-1.08,2.21-2.61,4.07-4.6,5.51c-0.43,0.31-0.35,0.7-0.32,1.08c0.03,0.31,0.36,0.26,0.58,0.32c2.52,0.64,5.04,1.27,7.56,1.91
		c0.32,0.08,0.63,0.08,0.95-0.01c1.3-0.34,2.6-0.66,3.9-0.98c1.26-0.32,2.52-0.63,3.78-0.95c0.15-0.04,0.33-0.04,0.39-0.23
		c0.13-0.38-0.03-0.92-0.37-1.17c-0.89-0.68-1.72-1.43-2.44-2.29c-2.1-2.5-3.31-5.37-3.57-8.64C51.6,43.06,51.66,41.97,51.64,41.35z
		 M42.9,28.22c5.75-8.41,13.56-13.12,23.76-13.13c10.19-0.02,18.02,4.66,23.77,13c1.33-1.31,2.82-2.36,4.51-3.1
		c0.23-0.1,0.31-0.3,0.4-0.51c0.69-1.62,1.37-3.26,2.09-4.87c0.16-0.35,0.07-0.54-0.17-0.79c-2.06-2.05-4.11-4.11-6.16-6.17
		c-0.36-0.36-0.3-0.37-0.75-0.08c-1.72,1.12-3.45,2.23-5.15,3.37c-0.35,0.24-0.62,0.26-0.98,0.02c-0.93-0.62-1.91-1.17-2.9-1.67
		c-2.49-1.27-5.11-2.2-7.84-2.79c-0.45-0.1-0.62-0.29-0.71-0.74c-0.39-1.97-0.82-3.93-1.24-5.9C71.41,4.3,71.4,4.3,70.83,4.3
		c-2.74,0-5.49,0-8.23,0c-0.6,0-0.6,0-0.73,0.61c-0.01,0.06-0.02,0.12-0.03,0.18c-0.41,1.95-0.83,3.89-1.23,5.84
		c-0.07,0.33-0.22,0.49-0.54,0.55c-0.48,0.09-0.95,0.22-1.42,0.34c-3.38,0.86-6.52,2.26-9.44,4.15c-0.39,0.25-0.65,0.22-1.02-0.03
		c-1.71-1.14-3.44-2.24-5.15-3.37c-0.25-0.17-0.41-0.23-0.67,0.03c-2.09,2.11-4.19,4.21-6.29,6.3c-0.23,0.23-0.25,0.41-0.12,0.69
		c0.71,1.66,1.41,3.33,2.1,5c0.1,0.24,0.24,0.4,0.48,0.51c0.39,0.18,0.76,0.39,1.13,0.6C40.85,26.37,41.9,27.23,42.9,28.22z
		 M13.51,96.09c0.12-0.16,0.14-0.36,0.19-0.56c2.14-8.54,4.28-17.09,6.42-25.63c0.38-1.52,0.74-3.04,1.14-4.55
		c0.08-0.29,0.05-0.47-0.23-0.58c-0.07-0.03-0.14-0.08-0.21-0.12c-4.72-2.75-9.45-5.49-14.15-8.27c-0.64-0.38-1.26-0.49-1.96-0.46
		c-0.29,0.01-0.41,0.12-0.39,0.4c0.01,0.1,0,0.2,0,0.3c0,11.95,0,23.9,0,35.85c0,0.7-0.04,0.6,0.57,0.81
		c2.71,0.91,5.43,1.81,8.15,2.71C13.17,96.04,13.32,96.13,13.51,96.09z M25.27,67.32c-0.18,0.23-0.19,0.52-0.26,0.79
		c-1.04,4.15-2.08,8.3-3.12,12.46c-1.37,5.49-2.74,10.98-4.12,16.47c-0.12,0.49-0.12,0.5,0.33,0.65c1.15,0.39,2.31,0.77,3.47,1.15
		c0.45,0.15,0.45,0.14,0.59-0.3c0.02-0.06,0.03-0.12,0.05-0.18c2.39-8.37,4.79-16.73,7.18-25.1c0.23-0.8,0.46-1.6,0.68-2.4
		c0.17-0.62,0.11-0.75-0.45-1.08c-1.26-0.74-2.53-1.47-3.79-2.21C25.66,67.48,25.5,67.34,25.27,67.32z M43.05,111.77
		c0.04,0.85,0.52,1.6,1.45,2.03c0.89,0.41,1.91,0.22,2.64-0.5c1.27-1.25,2.54-2.51,3.79-3.79c0.96-0.97,0.94-2.45,0-3.39
		c-0.95-0.95-2.39-0.97-3.39,0c-1.28,1.25-2.53,2.52-3.79,3.78C43.3,110.36,43.05,110.93,43.05,111.77z M58.08,114.24
		c-0.04-1-0.51-1.74-1.43-2.16c-0.95-0.43-1.85-0.27-2.59,0.44c-1.32,1.27-2.61,2.57-3.88,3.88c-0.93,0.95-0.89,2.42,0.03,3.35
		c0.91,0.92,2.4,0.96,3.35,0.03c1.3-1.26,2.57-2.55,3.84-3.83C57.86,115.48,58.1,114.91,58.08,114.24z M45.17,101.36
		c-0.03-1.03-0.51-1.78-1.45-2.2c-0.96-0.43-1.86-0.23-2.59,0.47c-1.31,1.25-2.58,2.53-3.84,3.83c-0.96,0.99-0.92,2.46,0.03,3.4
		c0.93,0.91,2.38,0.94,3.35,0c1.3-1.26,2.57-2.55,3.84-3.83C44.96,102.57,45.18,102.01,45.17,101.36z M64.54,120.72
		c0-0.97-0.56-1.84-1.46-2.2c-0.99-0.4-1.89-0.22-2.64,0.52c-1.27,1.23-2.52,2.48-3.75,3.75c-0.97,0.99-0.97,2.43-0.04,3.4
		c0.9,0.94,2.42,0.97,3.4,0.03c1.3-1.26,2.57-2.55,3.84-3.83C64.33,121.92,64.54,121.36,64.54,120.72z M68.35,123.56
		c-0.19,0.05-0.22,0.16-0.26,0.25c-0.39,0.77-0.92,1.43-1.54,2.02c-0.35,0.34-0.68,0.69-1.04,1.03c-0.18,0.17-0.16,0.29,0.02,0.44
		c0.39,0.33,0.78,0.65,1.14,1.01c0.66,0.66,1.47,0.84,2.35,0.73c0.9-0.12,1.54-0.62,1.84-1.48c0.29-0.81,0.17-1.6-0.44-2.2
		C69.77,124.71,69.03,124.14,68.35,123.56z"/>
</g>
</svg>
