<!-- Generator: Adobe Illustrator 24.0.0, SVG Export Plug-In  -->
<svg version="1.1" xmlns="http://www.w3.org/2000/svg" xmlns:xlink="http://www.w3.org/1999/xlink" x="0px" y="0px" width="91.71px"
	 height="91.04px" viewBox="0 0 91.71 91.04" style="enable-background:new 0 0 91.71 91.04;" xml:space="preserve">
<style type="text/css">
	.st0{fill:#346A6B;}
</style>
<defs>
</defs>
<path class="st0" d="M27.16,39.43l0,0.06c-0.23,3.96,1.99,7.67,5.65,9.44l0.04,0.02c1.29,0.62,2.35,1.63,3.01,2.9l0.02,0.03
	c1.84,3.51,5.66,5.64,9.72,5.42l0.06,0c1.47-0.08,2.94,0.3,4.18,1.09c3.44,2.15,7.81,2.15,11.25,0c1.25-0.79,2.71-1.17,4.18-1.09
	l0.06,0c4.06,0.22,7.88-1.91,9.72-5.43l0.01-0.02c0.67-1.27,1.73-2.29,3.02-2.9l0.03-0.02c3.66-1.78,5.88-5.49,5.65-9.44l0-0.06
	c-0.08-1.39,0.31-2.77,1.1-3.93c2.28-3.32,2.28-7.69,0-11.01c-0.79-1.15-1.18-2.53-1.1-3.92l0-0.06c0.23-3.96-1.99-7.67-5.65-9.44
	l-0.03-0.02c-1.29-0.62-2.34-1.63-3.01-2.89l-0.02-0.04c-1.84-3.51-5.66-5.64-9.72-5.42l-0.06,0c-1.47,0.08-2.94-0.3-4.18-1.09h0
	c-3.44-2.15-7.81-2.15-11.25,0C48.6,2.4,47.13,2.78,45.66,2.7l-0.06,0c-4.06-0.22-7.88,1.91-9.72,5.42l-0.01,0.03
	c-0.67,1.27-1.73,2.29-3.02,2.9l-0.04,0.02c-3.66,1.78-5.88,5.49-5.65,9.44l0,0.06c0.08,1.39-0.31,2.77-1.1,3.92
	c-2.28,3.32-2.28,7.7,0,11.01C26.85,36.66,27.24,38.04,27.16,39.43z M28.87,26.43c1.22-1.78,1.82-3.91,1.7-6.06l0-0.06
	c-0.12-2.62,1.35-5.06,3.73-6.17l0.03-0.01c1.95-0.93,3.55-2.47,4.55-4.38l0.02-0.03c1.22-2.33,3.79-3.75,6.51-3.6l0.06,0
	c2.18,0.12,4.34-0.44,6.19-1.61c2.33-1.46,5.28-1.46,7.61,0c1.84,1.17,4.01,1.73,6.19,1.61l0.06,0c2.74-0.14,5.29,1.27,6.51,3.6
	l0.02,0.04c1.01,1.91,2.6,3.45,4.55,4.38l0.03,0.01c2.41,1.17,3.88,3.6,3.73,6.18l0,0.06c-0.12,2.15,0.48,4.28,1.7,6.06
	c1.47,2.15,1.47,4.98,0,7.13c-1.22,1.78-1.82,3.91-1.7,6.06l0,0.06c0.15,2.58-1.32,5-3.73,6.18l-0.03,0.01
	c-1.95,0.94-3.55,2.47-4.56,4.39l-0.01,0.03c-1.23,2.33-3.79,3.75-6.52,3.6l-0.06,0c-2.18-0.12-4.34,0.44-6.19,1.61
	c-2.33,1.46-5.28,1.46-7.61,0c-1.68-1.06-3.62-1.63-5.61-1.62c-0.19,0-0.39,0.01-0.58,0.02l-0.06,0c-2.69,0.17-5.23-1.24-6.52-3.61
	l-0.02-0.03c-1.01-1.91-2.6-3.44-4.55-4.38l-0.03-0.02c-2.42-1.17-3.88-3.6-3.73-6.18l0-0.06c0.12-2.15-0.48-4.28-1.7-6.06
	C27.4,31.42,27.4,28.58,28.87,26.43L28.87,26.43z"/>
<path class="st0" d="M44.45,47.65c0.8,0.5,1.85,0.26,2.35-0.54l20.23-32.4c0.33-0.52,0.36-1.17,0.07-1.72
	c-0.29-0.54-0.84-0.89-1.46-0.91c-0.61-0.02-1.19,0.29-1.51,0.82L43.91,45.3C43.41,46.1,43.65,47.15,44.45,47.65z"/>
<path class="st0" d="M46.27,30.08c4.16,0,7.54-3.86,7.54-8.6s-3.38-8.6-7.54-8.6s-7.54,3.86-7.54,8.6S42.11,30.08,46.27,30.08z
	 M46.27,16.3c2.28,0,4.13,2.33,4.13,5.18s-1.85,5.18-4.13,5.18c-2.27,0-4.13-2.33-4.13-5.18S43.99,16.3,46.27,16.3z"/>
<path class="st0" d="M57.13,38.52c0,4.74,3.38,8.6,7.54,8.6c4.16,0,7.54-3.86,7.54-8.6c0-4.74-3.38-8.6-7.54-8.6
	C60.52,29.92,57.13,33.77,57.13,38.52z M68.8,38.52c0,2.86-1.85,5.18-4.13,5.18c-2.27,0-4.13-2.33-4.13-5.18s1.85-5.18,4.13-5.18
	C66.95,33.33,68.8,35.66,68.8,38.52z"/>
<path class="st0" d="M91.49,66.87c-2.26-4.01-7.28-5.54-11.39-3.47l-13.38,6.32c-1.85-3.43-5.39-5.62-9.29-5.73l-12.35-0.34
	c-1.96-0.06-3.87-0.55-5.61-1.45l-1.26-0.65c-6.43-3.35-14.1-3.34-20.53,0.02l0.08-2.85c0.03-0.94-0.72-1.73-1.66-1.75L2.57,56.6
	c-0.94-0.03-1.73,0.72-1.75,1.66L0,87.97c-0.03,0.94,0.72,1.73,1.66,1.75L15.2,90.1h0.05c0.92,0,1.68-0.74,1.71-1.66l0.04-1.42
	l3.52-1.88c1.38-0.74,3-0.92,4.5-0.49l21,5.9c0.04,0.01,0.07,0.02,0.11,0.03c1.52,0.32,3.07,0.48,4.62,0.48
	c3.28,0,6.53-0.71,9.52-2.08c0.07-0.03,0.14-0.07,0.21-0.12l30.46-19.7C91.69,68.65,91.94,67.66,91.49,66.87z M3.46,86.36l0.72-26.3
	l10.13,0.28l-0.72,26.3L3.46,86.36z M58.73,85.91c-3.71,1.67-7.85,2.14-11.84,1.32l-20.95-5.88c-2.36-0.67-4.88-0.39-7.04,0.77
	l-1.8,0.96l0.48-17.49c5.7-3.79,13-4.18,19.07-1.02l1.26,0.65c2.2,1.13,4.62,1.76,7.09,1.83l12.35,0.34
	c3.47,0.1,6.41,2.57,7.12,5.97l-18.39-0.51c-0.94-0.03-1.73,0.72-1.75,1.66c-0.03,0.94,0.72,1.73,1.66,1.75l20.3,0.56h0.05
	c0.92,0,1.68-0.74,1.71-1.66c0.02-0.74-0.04-1.48-0.17-2.22l13.72-6.48l0.04-0.02c1.95-0.99,4.3-0.66,5.9,0.83L58.73,85.91z"/>
</svg>
