<?xml version="1.0" encoding="utf-8"?>
<svg version="1.1" xmlns:xlink="http://www.w3.org/1999/xlink" width="25px" height="22px" xmlns="http://www.w3.org/2000/svg">
  <g transform="matrix(1 0 0 1 -384 -807 )">
    <path d="M 24.6261378413524 9.06892067620288  L 22.3829648894671 11  L 24.6261378413524 12.9310793237971  C 24.9512353706111 13.1980927611615  25.0596012136975 13.5318595578675  24.9512353706111 13.9323797139141  C 24.8211963589076 14.3233636757693  24.5394451668835 14.566536627655  24.1059817945384 14.6618985695709  L 21.0500650195058 15.3485045513654  L 21.9115734720415 18.0091027308192  C 22.041612483745 18.4000866926744  21.9386649328133 18.7338534893802  21.6027308192458 19.0104031209363  C 21.2884698742957 19.3060251408756  20.9091894234937 19.3966189856957  20.4648894668401 19.2821846553966  L 17.4414824447333 18.5240572171651  L 16.6612483745123 21.2132639791938  C 16.5528825314261 21.5947117468575  16.276549631556 21.8426527958387  15.8322496749026 21.9570871261378  C 15.7022106631989 21.9761595145209  15.599263112267 21.9856957087126  15.5234070221068 21.9856957087126  C 15.1874729085391 21.9856957087126  14.9111400086692 21.8807975726052  14.6944083224969 21.6710013003901  L 12.5 19.6970091027308  L 10.3055916775031 21.6710013003901  C 10.0021673168617 21.9570871261378  9.62288686605984 22.0524490680538  9.16775032509736 21.9570871261378  C 8.72345036844399 21.8521889900303  8.44711746857388 21.604247941049  8.3387516254877 21.2132639791938  L 7.55851755526669 18.5240572171651  L 4.53511053315992 19.2821846553966  C 4.09081057650633 19.3966189856957  3.71153012570426 19.3060251408756  3.39726918075417 19.0104031209363  C 3.06133506718675 18.7338534893802  2.95838751625502 18.4000866926744  3.08842652795852 18.0091027308192  L 3.94993498049416 15.3485045513654  L 0.894018205461634 14.6618985695709  C 0.460554833116475 14.566536627655  0.178803641092372 14.3233636757693  0.0487646293888702 13.9323797139141  C -0.0596012136973059 13.5318595578675  0.0487646293888702 13.1980927611615  0.373862158647626 12.9310793237971  L 2.61703511053292 11  L 0.373862158647626 9.06892067620288  C 0.0487646293888702 8.80190723883834  -0.0596012136973059 8.46814044213261  0.0487646293888702 8.06762028608591  C 0.178803641092372 7.67663632423069  0.460554833116475 7.43346337234505  0.894018205461634 7.33810143042911  L 3.94993498049416 6.65149544863459  L 3.08842652795852 3.99089726918078  C 2.95838751625502 3.59991330732555  3.06133506718675 3.26614651061982  3.39726918075417 2.9895968790637  C 3.71153012570426 2.69397485912441  4.09081057650633 2.60338101430432  4.53511053315992 2.71781534460342  L 7.55851755526669 3.47594278283486  L 8.3387516254877 0.786736020806188  C 8.44711746857388 0.395752058950961  8.72345036844399 0.152579107065549  9.16775032509736 0.0572171651496092  C 9.61205028175118 -0.0572171651496092  9.99133073255302 0.0333766796705959  10.3055916775031 0.328998699609883  L 12.5 2.31729518855661  L 14.6944083224969 0.328998699609883  C 15.008669267447 0.0429128738621785  15.3879497182488 -0.0476809709579129  15.8322496749026 0.0572171651496092  C 16.276549631556 0.152579107065549  16.5528825314261 0.395752058950961  16.6612483745123 0.786736020806188  L 17.4414824447333 3.47594278283486  L 20.4648894668401 2.71781534460342  C 20.9091894234937 2.60338101430432  21.2884698742957 2.69397485912441  21.6027308192458 2.9895968790637  C 21.9386649328133 3.26614651061982  22.041612483745 3.59991330732555  21.9115734720415 3.99089726918078  L 21.0500650195058 6.65149544863459  L 24.1059817945384 7.33810143042911  C 24.5394451668835 7.43346337234505  24.8211963589076 7.67663632423069  24.9512353706111 8.06762028608591  C 25.0596012136975 8.46814044213261  24.9512353706111 8.80190723883834  24.6261378413524 9.06892067620288  Z " fill-rule="nonzero" fill="#ff0000" stroke="none" transform="matrix(1 0 0 1 384 807 )" />
  </g>
</svg>